<?xml version="1.0" standalone="no"?>
<!DOCTYPE svg PUBLIC "-//W3C//DTD SVG 20010904//EN"
 "http://www.w3.org/TR/2001/REC-SVG-20010904/DTD/svg10.dtd">
<svg version="1.0" xmlns="http://www.w3.org/2000/svg"
 width="512.000000pt" height="512.000000pt" viewBox="0 0 512.000000 512.000000"
 preserveAspectRatio="xMidYMid meet">

<g transform="translate(0.000000,512.000000) scale(0.100000,-0.100000)"
fill="#000000" stroke="none">
<path d="M2299 5040 c-290 -20 -494 -80 -653 -194 -253 -180 -479 -573 -545
-946 -24 -133 -57 -409 -67 -558 -6 -97 -9 -106 -37 -135 -100 -107 -345 -464
-502 -732 -237 -404 -469 -957 -492 -1170 l-5 -51 107 -107 c179 -180 403
-353 427 -329 4 4 12 38 18 75 17 107 35 141 115 215 81 74 153 121 247 161
59 24 72 26 223 26 141 0 169 -3 232 -23 39 -13 81 -34 93 -47 11 -12 43 -80
69 -151 71 -190 93 -230 144 -255 23 -12 188 -106 367 -209 452 -260 477 -273
504 -266 27 7 287 151 516 286 91 53 209 121 264 151 54 30 109 67 121 84 13
17 46 93 74 170 28 77 57 151 63 164 44 84 349 136 513 87 129 -38 266 -127
352 -227 33 -39 42 -60 62 -147 l22 -102 39 20 c116 59 500 402 500 446 0 9
-21 86 -46 172 -151 513 -523 1213 -888 1671 l-102 127 -11 155 c-17 211 -58
505 -87 621 -103 405 -382 786 -671 913 -90 40 -217 74 -339 90 -138 18 -472
26 -627 15z m496 -132 c4 -3 -5 -29 -19 -56 -82 -163 -135 -576 -152 -1202 -8
-302 22 -708 50 -680 7 7 13 167 18 493 7 564 22 807 68 1093 21 132 58 260
90 312 23 37 40 39 153 18 286 -55 508 -243 683 -580 106 -204 150 -374 184
-718 29 -298 38 -355 58 -402 11 -23 81 -125 157 -227 237 -316 350 -498 516
-830 169 -340 299 -664 327 -817 l9 -52 -56 -53 c-125 -116 -271 -222 -271
-198 0 31 -44 254 -69 353 -93 359 -236 699 -399 948 -82 125 -247 313 -346
392 -88 70 -222 142 -307 164 -84 22 -217 22 -293 0 -164 -48 -316 -161 -479
-356 -84 -101 -125 -129 -189 -130 -65 0 -103 28 -213 156 -212 248 -379 344
-598 344 -228 0 -433 -117 -662 -377 -254 -288 -491 -843 -588 -1376 l-23
-128 -59 40 c-81 54 -244 197 -257 226 -8 18 1 56 51 205 174 521 474 1081
820 1530 53 69 107 139 119 157 28 40 47 135 62 318 32 396 80 604 187 819
162 325 369 508 657 581 136 34 161 33 186 -7 98 -160 147 -605 158 -1415 5
-320 11 -476 18 -483 21 -21 53 302 54 540 0 246 -36 794 -66 1000 -19 130
-54 268 -88 340 l-26 55 38 7 c46 8 489 5 497 -4z m-883 -2158 c142 -53 408
-273 408 -337 0 -18 -72 -50 -142 -64 -82 -16 -256 -12 -332 7 -87 22 -166 69
-189 114 -34 66 -1 189 74 274 31 36 36 38 79 33 25 -3 71 -15 102 -27z m1415
-2 c74 -78 113 -220 79 -286 -31 -61 -167 -113 -328 -128 -102 -8 -338 42
-338 73 1 49 179 217 315 296 76 44 162 76 211 76 21 1 39 -8 61 -31z m-2105
-477 c-6 -288 -8 -275 126 -679 53 -160 96 -292 95 -292 -1 0 -34 18 -75 39
-213 115 -438 93 -665 -65 -42 -30 -78 -52 -79 -51 -6 6 30 159 63 267 97 321
270 685 419 883 38 50 114 137 119 137 1 0 -1 -107 -3 -239z m2694 157 c198
-253 355 -581 469 -973 23 -82 46 -170 50 -194 l7 -43 -73 50 c-160 107 -249
137 -409 137 -106 -1 -121 -3 -197 -33 -45 -18 -93 -42 -108 -54 -14 -11 -28
-18 -31 -15 -3 2 38 132 91 287 136 405 128 362 126 658 -1 160 2 252 8 252 5
0 35 -33 67 -72z m-2200 -216 c23 -7 97 -12 165 -12 106 0 142 4 243 31 65 16
120 28 123 26 5 -5 -119 -57 -192 -81 -163 -52 -284 -61 -362 -26 -84 37 -169
136 -198 230 -6 18 18 0 86 -65 67 -65 106 -94 135 -103z m1831 114 c-54 -117
-174 -199 -291 -198 -79 1 -208 31 -328 77 -86 33 -143 65 -93 52 211 -55 234
-59 367 -55 164 4 185 13 288 120 41 43 76 73 78 68 2 -5 -8 -34 -21 -64z
m-946 -51 c24 -8 58 -27 74 -41 l30 -25 -30 6 c-154 30 -152 29 -230 11 -42
-10 -79 -16 -81 -13 -6 6 49 41 97 61 44 20 85 20 140 1z m19 -126 c30 -11 56
-22 57 -22 1 -1 -63 -2 -142 -2 -79 0 -141 2 -138 5 11 12 101 39 133 39 19 1
60 -8 90 -20z m-1104 -114 c43 -25 90 -48 104 -52 13 -3 76 4 140 16 234 45
406 45 550 1 60 -18 122 -53 110 -62 -3 -2 -43 -28 -89 -58 -46 -30 -118 -88
-160 -130 -124 -122 -265 -348 -322 -514 -32 -91 -39 -68 -14 46 44 209 199
430 409 583 52 39 96 73 96 76 0 3 -37 14 -82 24 -111 24 -273 22 -413 -5
-153 -30 -204 -28 -279 9 -50 24 -155 111 -135 111 3 0 41 -20 85 -45z m2074
0 c-95 -97 -175 -113 -370 -74 -138 28 -315 30 -422 5 -43 -10 -78 -19 -78
-21 0 -2 37 -31 83 -63 90 -66 235 -210 286 -285 85 -125 157 -326 149 -416
-3 -32 -5 -28 -22 37 -38 148 -175 379 -308 517 -42 44 -117 107 -167 140 -50
33 -89 65 -87 70 5 19 66 53 114 65 26 6 117 14 203 17 140 5 169 3 291 -21
74 -14 148 -26 164 -26 16 0 66 21 114 49 47 27 87 49 90 50 2 1 -16 -19 -40
-44z m-1021 -239 c15 -8 35 -25 43 -38 18 -28 29 -158 13 -158 -13 0 -43 20
-30 20 17 0 17 84 -1 106 -14 18 -15 18 -4 -5 18 -35 -1 -68 -43 -76 -66 -13
-98 35 -66 98 11 21 10 21 -6 5 -11 -10 -20 -37 -23 -67 -3 -35 -11 -55 -26
-68 -11 -10 -15 -11 -8 -3 6 8 12 36 12 62 0 59 21 102 58 122 34 19 46 19 81
2z m-185 -261 c-27 -36 -61 -61 -71 -51 -3 2 17 28 43 56 53 56 72 53 28 -5z
m-794 -233 l122 -233 -33 -29 c-19 -16 -37 -25 -41 -22 -3 4 -43 116 -87 248
-45 133 -84 250 -88 260 -14 40 8 1 127 -224z m2017 231 c-3 -5 -44 -120 -92
-258 -48 -137 -89 -252 -91 -254 -4 -4 -74 39 -74 45 0 4 223 425 247 467 2 4
6 7 9 7 3 0 3 -3 1 -7z m-1364 -212 c5 -79 0 -276 -9 -318 -4 -21 -10 -23 -78
-23 -74 0 -74 0 -85 31 -13 37 -14 135 -2 198 7 35 22 57 82 117 40 41 76 74
80 74 3 0 9 -36 12 -79z m752 -121 c10 -75 8 -175 -4 -199 -10 -18 -20 -21
-85 -21 l-73 0 -7 53 c-8 68 -8 331 0 352 5 13 23 1 85 -61 69 -69 78 -82 84
-124z m-971 -87 c3 -32 2 -74 -2 -93 l-8 -35 -72 -3 c-116 -5 -117 1 -22 102
46 47 86 86 90 86 5 0 11 -26 14 -57z m1115 -30 c45 -47 78 -90 73 -95 -11
-11 -143 -15 -160 -5 -14 10 -17 187 -3 187 5 0 46 -39 90 -87z m-1359 -83
c41 -41 10 -140 -44 -140 -66 0 -101 84 -53 127 40 37 69 41 97 13z m1597 -12
c47 -44 13 -128 -53 -128 -51 0 -84 92 -47 132 22 25 71 23 100 -4z m-164 -78
c2 -14 7 -32 11 -41 6 -15 -55 -16 -691 -16 l-699 0 10 41 9 41 678 0 677 0 5
-25z m-1058 -260 c99 -59 224 -130 278 -159 l97 -53 93 50 c50 27 177 99 281
161 111 65 200 111 215 111 28 0 41 8 -381 -237 l-207 -120 -223 129 c-122 71
-260 149 -305 174 -93 50 -110 67 -61 58 18 -4 114 -55 213 -114z m870 110
c-3 -6 -61 -42 -128 -82 -67 -39 -177 -104 -244 -144 l-122 -73 -178 106 c-98
58 -208 124 -246 146 -37 22 -70 43 -73 48 -3 5 213 9 496 9 334 0 499 -3 495
-10z"/>
<path d="M1721 3209 c-76 -9 -256 -50 -301 -68 -36 -14 -12 -14 150 4 386 42
503 3 799 -264 94 -85 95 -75 2 34 -114 134 -256 244 -355 274 -77 23 -199 32
-295 20z"/>
<path d="M3126 3209 c-72 -11 -149 -45 -230 -103 -64 -45 -224 -205 -266 -266
-20 -29 -13 -25 45 26 211 184 307 246 425 275 78 19 338 17 473 -4 141 -22
150 -21 47 9 -192 54 -387 79 -494 63z"/>
</g>
</svg>
